HIERARCHY
ROOT Hips
{
	OFFSET -1.602300 6.242603 43.997101
	CHANNELS 6 Xposition Yposition Zposition Zrotation Xrotation Yrotation
	JOINT Chest
	{
		OFFSET -0.204900 1.598101 7.917301
		CHANNELS 6 Xposition Yposition Zposition Zrotation Xrotation Yrotation
		JOINT Chest2
		{
			OFFSET 0.000000 0.000000 3.404099
			CHANNELS 6 Xposition Yposition Zposition Zrotation Xrotation Yrotation
			JOINT Neck
			{
				OFFSET 0.000000 0.000000 7.928600
				CHANNELS 6 Xposition Yposition Zposition Zrotation Xrotation Yrotation
				JOINT Head
				{
					OFFSET 0.000000 0.000000 2.173897
					CHANNELS 6 Xposition Yposition Zposition Zrotation Xrotation Yrotation
					End Site
					{
						OFFSET 0.000000 0.000001 10.404503
					}
				}
			}
			JOINT LeftCollar
			{
				OFFSET 2.833800 -1.396299 4.843300
				CHANNELS 6 Xposition Yposition Zposition Zrotation Xrotation Yrotation
				JOINT LeftShoulder
				{
					OFFSET 4.363600 0.000000 0.000000
					CHANNELS 6 Xposition Yposition Zposition Zrotation Xrotation Yrotation
					JOINT LeftElbow
					{
						OFFSET 0.000000 -0.000001 -10.306900
						CHANNELS 6 Xposition Yposition Zposition Zrotation Xrotation Yrotation
						JOINT LeftWrist
						{
							OFFSET 0.000000 -0.000001 -12.404900
							CHANNELS 6 Xposition Yposition Zposition Zrotation Xrotation Yrotation
							End Site
							{
								OFFSET 0.000000 0.000000 -2.173901
							}
						}
					}
				}
			}
			JOINT RightCollar
			{
				OFFSET -2.354800 -1.897200 5.063099
				CHANNELS 6 Xposition Yposition Zposition Zrotation Xrotation Yrotation
				JOINT RightShoulder
				{
					OFFSET -4.375800 0.000000 0.000000
					CHANNELS 6 Xposition Yposition Zposition Zrotation Xrotation Yrotation
					JOINT RightElbow
					{
						OFFSET 0.000000 -0.000001 -10.005001
						CHANNELS 6 Xposition Yposition Zposition Zrotation Xrotation Yrotation
						JOINT RightWrist
						{
							OFFSET 0.000000 -0.000001 -13.174900
							CHANNELS 6 Xposition Yposition Zposition Zrotation Xrotation Yrotation
							End Site
							{
								OFFSET 0.000000 0.000000 -2.173901
							}
						}
					}
				}
			}
		}
	}
	JOINT LeftHip
	{
		OFFSET 2.240600 0.386800 -2.614101
		CHANNELS 6 Xposition Yposition Zposition Zrotation Xrotation Yrotation
		JOINT LeftKnee
		{
			OFFSET 0.000000 -0.000001 -18.592899
			CHANNELS 6 Xposition Yposition Zposition Zrotation Xrotation Yrotation
			JOINT LeftAnkle
			{
				OFFSET 0.000000 -0.000001 -18.765800
				CHANNELS 6 Xposition Yposition Zposition Zrotation Xrotation Yrotation
				End Site
				{
					OFFSET 0.000000 -8.655000 0.000000
				}
			}
		}
	}
	JOINT RightHip
	{
		OFFSET -2.014900 -0.220900 -2.615898
		CHANNELS 6 Xposition Yposition Zposition Zrotation Xrotation Yrotation
		JOINT RightKnee
		{
			OFFSET 0.000000 -0.000001 -18.633900
			CHANNELS 6 Xposition Yposition Zposition Zrotation Xrotation Yrotation
			JOINT RightAnkle
			{
				OFFSET 0.000000 -0.000001 -18.285101
				CHANNELS 6 Xposition Yposition Zposition Zrotation Xrotation Yrotation
				End Site
				{
					OFFSET 0.000000 -7.524500 0.000000
				}
			}
		}
	}
}
MOTION
Frames: 6
Frame Time: 0.041667
-5.581899 24.622503 8.065311 4.333287 15.641922 5.051415 -0.204901 1.598100 7.917310 -3.511044 7.710663 -4.834101 -0.000000 0.000000 3.404101 2.458900 -13.990565 -1.095297 -0.000000 -0.000004 7.928596 0.760563 -0.223450 -1.316241 0.000000 0.000001 2.173903 0.322462 -3.782142 0.410826 2.833803 -1.396303 4.843306 -5.763005 9.864840 19.659544 4.363597 0.000010 -0.000004 -67.184814 -8.846450 -94.184853 0.000003 0.000013 -10.306904 220.128842 -122.772363 222.155687 -0.000004 0.000008 -12.404895 -225.184602 198.528396 -228.481794 -2.354802 -1.897206 5.063106 16.904483 11.502502 -12.338475 -4.375792 0.000002 -0.000013 175.689500 -45.056197 235.201280 -0.000010 -0.000011 -10.005003 40.161294 25.999158 -96.156523 -0.000005 0.000015 -13.174904 131.593321 -190.449607 80.134464 2.240598 0.386802 -2.614104 145.326891 -29.995688 117.060768 -0.000000 -0.000001 -18.592896 -106.910158 35.694876 136.723694 -0.000002 0.000001 -18.765800 11.975623 33.037454 -10.631884 -2.014897 -0.220897 -2.615898 -121.035515 -10.525377 -107.858960 0.000001 0.000000 -18.633881 161.833532 21.120716 -176.793996 -0.000008 -0.000001 -18.285086 -30.068784 32.998700 -223.172347
-5.575199 24.607904 8.068703 4.207867 15.680774 5.018645 -0.204900 1.598101 7.917305 -3.405879 7.632345 -4.766821 -0.000001 -0.000002 3.404102 2.548368 -13.937419 -1.081294 0.000000 -0.000001 7.928603 0.840966 -0.500691 -1.402653 -0.000000 0.000002 2.173898 0.257125 -3.897403 0.458159 2.833805 -1.396302 4.843307 -5.709596 9.717580 19.453584 4.363597 0.000006 -0.000003 -67.450317 -8.764547 -94.272907 0.000005 0.000010 -10.306901 219.754465 -123.054081 221.444363 -0.000002 0.000007 -12.404896 -224.577317 198.826165 -228.475128 -2.354802 -1.897202 5.063104 16.897610 11.417006 -12.028030 -4.375794 0.000002 -0.000006 175.623835 -45.294775 235.274909 -0.000012 -0.000010 -10.005001 39.671637 25.943753 -95.884176 -0.000006 0.000009 -13.174905 131.275389 -190.507281 80.098687 2.240599 0.386804 -2.614104 145.460203 -30.014112 117.032068 0.000000 -0.000001 -18.592892 -106.778608 35.619351 136.680992 0.000001 -0.000000 -18.765800 12.168993 33.018343 -11.023124 -2.014894 -0.220898 -2.615905 -120.950834 -10.522098 -107.941270 0.000000 0.000002 -18.633883 161.950779 21.095645 -176.834759 -0.000007 -0.000002 -18.285088 -30.014512 33.037079 -223.270442
-5.566799 24.596203 8.069607 4.094168 15.846717 5.023546 -0.204900 1.598101 7.917310 -3.315685 7.380565 -4.803705 -0.000000 0.000001 3.404104 2.603896 -13.866300 -1.063657 -0.000000 0.000003 7.928606 0.797468 -0.744328 -1.354163 0.000000 0.000003 2.173899 0.301920 -3.990737 0.400594 2.833802 -1.396299 4.843311 -5.745690 9.618642 19.116672 4.363597 0.000008 -0.000005 -67.613265 -9.023441 -94.316354 0.000001 0.000006 -10.306900 219.067130 -123.453784 220.591819 -0.000005 0.000007 -12.404902 -224.514588 199.400092 -228.981436 -2.354800 -1.897201 5.063109 16.730205 11.210708 -11.684228 -4.375793 0.000006 -0.000012 176.045189 -45.215374 235.504076 -0.000009 -0.000012 -10.005005 39.748846 25.983156 -95.598422 -0.000003 0.000008 -13.174903 131.261168 -190.600500 80.114854 2.240599 0.386801 -2.614102 145.606232 -29.857270 117.110683 -0.000002 0.000000 -18.592894 -106.800553 35.666042 136.716482 0.000001 0.000000 -18.765797 12.206385 33.106436 -11.194339 -2.014896 -0.220898 -2.615901 -120.906861 -10.340113 -108.112039 0.000001 0.000003 -18.633883 162.096112 21.049579 -176.858883 -0.000008 -0.000001 -18.285086 -29.992057 33.065731 -223.326887
-5.561599 24.583202 8.070808 3.981214 15.917961 4.940719 -0.204900 1.598103 7.917299 -3.231822 7.277066 -4.672334 -0.000000 0.000001 3.404104 2.663513 -13.848915 -1.056657 0.000000 -0.000000 7.928600 0.723313 -0.990757 -1.370003 0.000000 0.000005 2.173897 0.334662 -4.079065 0.356266 2.833802 -1.396299 4.843306 -5.925222 9.607090 18.620465 4.363598 0.000006 -0.000008 -67.636297 -9.708075 -94.390530 0.000002 0.000007 -10.306903 218.293993 -123.575785 219.915111 -0.000003 0.000006 -12.404894 -224.127289 199.407933 -228.629422 -2.354803 -1.897203 5.063106 16.447970 10.971563 -11.349357 -4.375790 0.000005 -0.000007 176.622586 -45.159257 235.799413 -0.000009 -0.000009 -10.005007 39.876140 25.926466 -95.351900 -0.000004 0.000009 -13.174900 130.962430 -190.752744 80.313114 2.240598 0.386808 -2.614105 145.688550 -29.690033 117.041562 -0.000000 -0.000002 -18.592890 -106.930976 35.765227 136.791190 -0.000000 0.000001 -18.765799 12.088020 33.193920 -11.159353 -2.014895 -0.220897 -2.615903 -120.845349 -10.329630 -108.243971 0.000000 -0.000002 -18.633883 162.188880 21.017194 -176.876682 -0.000008 -0.000002 -18.285088 -29.972591 33.085450 -223.368674
-5.554699 24.566101 8.072506 3.978872 16.006634 4.837565 -0.204901 1.598100 7.917304 -3.267175 7.094824 -4.497012 -0.000001 -0.000001 3.404106 2.690428 -13.799761 -1.054785 -0.000000 -0.000003 7.928605 0.687451 -1.171865 -1.458547 -0.000000 0.000000 2.173908 0.357654 -4.178955 0.335344 2.833801 -1.396302 4.843311 -6.274201 9.770950 18.283279 4.363597 0.000007 -0.000003 -67.591661 -10.485778 -94.800608 0.000000 0.000004 -10.306902 217.831303 -124.037192 219.745340 -0.000003 0.000007 -12.404900 -224.185045 199.628493 -228.473147 -2.354802 -1.897202 5.063109 16.372841 10.929499 -11.293511 -4.375794 0.000003 -0.000011 177.221703 -44.497272 236.053277 -0.000010 -0.000008 -10.005003 40.318026 25.950904 -94.999885 -0.000004 0.000008 -13.174905 130.748768 -190.875934 80.407186 2.240598 0.386803 -2.614107 145.691582 -29.588769 117.008777 0.000000 -0.000003 -18.592896 -107.014011 35.840386 136.878111 -0.000001 0.000002 -18.765799 11.983927 33.210422 -11.185594 -2.014898 -0.220898 -2.615905 -120.897244 -10.290880 -108.371415 0.000001 0.000003 -18.633886 162.272686 20.973230 -176.883076 -0.000008 -0.000001 -18.285086 -29.965782 33.095111 -223.384083
-5.553199 24.553307 8.076103 4.094438 16.220002 4.854635 -0.204901 1.598097 7.917307 -3.402046 6.746267 -4.575939 -0.000000 -0.000000 3.404098 2.695474 -13.746303 -1.048537 0.000000 0.000002 7.928602 0.638015 -1.281164 -1.409675 -0.000000 0.000001 2.173907 0.324564 -4.276581 0.327162 2.833800 -1.396298 4.843307 -6.843126 10.192370 18.287422 4.363597 0.000009 -0.000004 -67.421562 -11.052675 -95.470178 0.000002 0.000009 -10.306900 217.245382 -124.321505 219.298373 -0.000003 0.000008 -12.404897 -223.972654 199.993335 -228.616253 -2.354802 -1.897199 5.063105 16.560518 11.176557 -11.495084 -4.375789 0.000001 -0.000009 177.538569 -43.375892 236.036858 -0.000015 -0.000007 -10.005001 41.056253 26.020939 -94.677077 -0.000005 0.000011 -13.174909 130.556539 -191.006991 80.410205 2.240598 0.386800 -2.614102 145.682444 -29.485527 117.192891 0.000000 -0.000003 -18.592892 -107.109975 35.947712 136.968502 -0.000000 0.000001 -18.765799 11.830140 33.257304 -11.165614 -2.014896 -0.220896 -2.615899 -121.051989 -9.998626 -108.515013 0.000000 -0.000000 -18.633884 162.400725 20.935307 -176.875767 -0.000008 -0.000002 -18.285084 -29.973930 33.103314 -223.382566
